<svg width="50" height="50" viewBox="0 0 50 50" fill="none" xmlns="http://www.w3.org/2000/svg">
<path d="M42.3075 33.1253C41.7497 33.6845 40.8481 33.6845 40.2903 33.1253L38.2732 31.1081C37.7139 30.5503 37.7139 29.6473 38.2732 29.0909L42.3075 25.0566C42.8653 24.4988 43.7669 24.4988 44.3247 25.0566L46.3418 27.0738C46.901 27.6316 46.901 28.5346 46.3418 29.0909L42.3075 33.1253ZM20.909 11.7268C20.3512 12.286 19.4496 12.286 18.8918 11.7268L16.8746 9.70959C16.3154 9.1518 16.3154 8.25021 16.8746 7.69242L20.909 3.65809C21.4668 3.1003 22.3684 3.1003 22.9261 3.65809L24.9433 5.67525C25.5025 6.23304 25.5025 7.13463 24.9433 7.69242L20.909 11.7268Z" fill="#66757F"/>
<path d="M2.36361 30.5176C5.21675 30.5176 18.0559 31.9442 18.0559 31.9442C18.0559 31.9442 19.4824 44.7833 19.4824 47.6364C19.4824 50.4896 16.6293 50.4896 15.2027 49.063C13.7762 47.6364 9.49645 40.5036 9.49645 40.5036C9.49645 40.5036 2.36361 36.2239 0.937047 34.7973C-0.489521 33.3708 -0.489521 30.5176 2.36361 30.5176ZM5.21675 7.74817C9.49645 7.69253 40.8809 9.1191 40.8809 9.1191C40.8809 9.1191 42.1991 40.5036 42.2533 44.7833C42.3075 49.063 38.3117 50.4924 36.7439 44.7847C35.1761 39.077 29.4684 20.5316 29.4684 20.5316C29.4684 20.5316 9.56065 14.2305 5.20962 13.2533C-0.489521 11.9722 0.93562 7.80238 5.21675 7.74817Z" fill="#55ACEE"/>
<path d="M38.0278 3.41279C40.8809 0.55965 48.0138 -0.866918 49.4403 0.559649C50.8669 1.98622 49.4403 9.11906 46.5872 11.9722C43.7341 14.8253 19.4824 37.6504 19.4824 37.6504C19.4824 37.6504 10.2097 44.07 8.06988 41.9301C5.93003 39.7903 12.3496 30.5176 12.3496 30.5176C12.3496 30.5176 35.1747 6.26592 38.0278 3.41279Z" fill="#CCD6DD"/>
<path d="M19.4824 30.5176C19.4824 30.5176 20.1957 31.2309 13.7761 37.6505C7.35658 44.07 6.6433 43.3567 6.6433 43.3567C6.6433 43.3567 5.93002 42.6435 12.3496 36.2239C18.7691 29.8043 19.4824 30.5176 19.4824 30.5176ZM40.8809 4.83941C43.2447 4.83941 45.1606 6.75529 45.1606 9.11911H46.309C46.4716 8.66974 46.5872 8.19898 46.5872 7.69255C46.5872 5.32872 44.6713 3.41284 42.3075 3.41284C41.8011 3.41284 41.3303 3.52839 40.8809 3.69102V4.83941Z" fill="#66757F"/>
</svg>
