<svg width="250" height="250" viewBox="0 0 250 250" fill="none" xmlns="http://www.w3.org/2000/svg">
<path d="M125 125C113.542 125 103.733 120.92 95.5729 112.76C87.4132 104.601 83.3333 94.7915 83.3333 83.3332C83.3333 71.8748 87.4132 62.0658 95.5729 53.9061C103.733 45.7464 113.542 41.6665 125 41.6665C136.458 41.6665 146.267 45.7464 154.427 53.9061C162.587 62.0658 166.667 71.8748 166.667 83.3332C166.667 94.7915 162.587 104.601 154.427 112.76C146.267 120.92 136.458 125 125 125ZM41.6667 208.333V179.167C41.6667 173.264 43.1875 167.84 46.2292 162.896C49.2708 157.951 53.3055 154.173 58.3333 151.562C69.0972 146.18 80.0347 142.146 91.1458 139.458C102.257 136.771 113.542 135.423 125 135.416C136.458 135.416 147.743 136.764 158.854 139.458C169.965 142.153 180.903 146.187 191.667 151.562C196.701 154.166 200.74 157.944 203.781 162.896C206.823 167.847 208.34 173.271 208.333 179.167V208.333H41.6667Z" fill="white"/>
</svg>
