<svg width="50" height="50" viewBox="0 0 50 50" fill="none" xmlns="http://www.w3.org/2000/svg">
<path d="M22.3289 49.072C23.057 49.8529 23.9576 50.1586 24.8327 49.9218C25.7078 49.685 26.4857 48.925 26.9952 47.8092C27.0829 47.618 27.1451 47.4021 27.1782 47.174C27.2113 46.9458 27.2147 46.7099 27.1882 46.4798C27.1616 46.2496 27.1057 46.0298 27.0235 45.8329C26.9414 45.636 26.8346 45.4659 26.7095 45.3324L24.026 40.9993L30.1501 47.569C30.384 47.821 30.6481 47.9997 30.9271 48.0948C31.2062 48.19 31.4948 48.1997 31.7763 48.1235C32.0578 48.0473 32.3268 47.8866 32.5677 47.6506C32.8086 47.4147 33.0168 47.1082 33.1802 46.7487C33.344 46.3898 33.4601 45.9851 33.5219 45.5575C33.5836 45.1299 33.5898 44.6878 33.5401 44.2566C33.4904 43.8253 33.3858 43.4132 33.2322 43.0439C33.0786 42.6747 32.8791 42.3554 32.645 42.1043L27.4289 34.7564L35.2254 43.1225C35.4593 43.3745 35.7234 43.5531 36.0025 43.6483C36.2815 43.7434 36.5701 43.7532 36.8516 43.677C37.1332 43.6007 37.4021 43.44 37.643 43.2041C37.8839 42.9682 38.0921 42.6617 38.2555 42.3021C38.4193 41.9433 38.5354 41.5386 38.5972 41.111C38.659 40.6834 38.6652 40.2413 38.6155 39.81C38.5658 39.3788 38.4611 38.9667 38.3075 38.5974C38.1539 38.2281 37.9544 37.9088 37.7203 37.6577L30.8072 28.6024L39.3129 37.7289C39.5468 37.9808 39.8109 38.1595 40.09 38.2547C40.3691 38.3498 40.6576 38.3595 40.9392 38.2833C41.2207 38.2071 41.4896 38.0464 41.7306 37.8105C41.9715 37.5746 42.1796 37.268 42.3431 36.9085C42.5069 36.5497 42.623 36.1449 42.6847 35.7173C42.7465 35.2897 42.7527 34.8477 42.703 34.4164C42.6533 33.9851 42.5487 33.5731 42.3951 33.2038C42.2415 32.8345 42.0419 32.5152 41.8078 32.2641L5.36526 6.52539L0.336355 18.8C-0.227892 20.134 -0.0741382 21.9415 0.736696 23.0042L12.0303 37.8356C12.5453 38.5115 13.0805 39.1495 13.6361 39.7454L22.3289 49.072Z" fill="#EF9645"/>
<path d="M41.728 29.9984L25.3344 11.8766L25.2488 11.6987L25.3257 11.5208L25.4026 11.403L26.6413 12.4457C28.0309 13.8241 31.206 15.8606 33.6124 15.8606C35.2588 15.8606 36.2451 14.9158 36.5395 13.066C36.6291 12.2483 36.5034 11.4096 36.1902 10.7337C35.877 10.0577 35.4017 9.59966 34.8686 9.45987C33.413 9.12689 32.0247 8.29805 30.8057 7.03429L30.0007 6.20501C29.0955 5.26902 28.07 4.20852 27.3129 3.52375C26.37 2.64779 25.3445 2.22314 24.1754 2.22314C22.4406 2.22314 20.6782 3.16136 18.9754 4.06845L17.139 5.03779C16.3466 5.44705 15.5151 5.65069 14.6789 5.6403C12.4394 5.6403 10.2476 4.33747 8.12846 3.0791L7.91523 2.95015C7.47908 2.69415 6.99845 2.67834 6.55554 2.90545C6.11262 3.13255 5.73494 3.58845 5.48708 4.19518L0.458174 16.4743C0.202142 17.0862 0.0988742 17.8193 0.167366 18.5386C0.235857 19.2579 0.471501 19.9152 0.830955 20.3894L12.1232 35.223C12.6337 35.8922 13.1704 36.5303 13.7187 37.1173L22.6611 46.7129C22.9732 47.048 23.3253 47.2856 23.6973 47.4121C24.0693 47.5386 24.4539 47.5516 24.8292 47.4502C25.2045 47.3488 25.563 47.1351 25.8844 46.8213C26.2058 46.5075 26.4837 46.0997 26.7022 45.6212C26.878 45.2343 26.9468 44.7564 26.8935 44.2919C26.8403 43.8275 26.6693 43.4142 26.4179 43.1423L23.7591 40.2899C23.6896 40.2149 23.631 40.1188 23.587 40.0074C23.543 39.896 23.5145 39.7719 23.5033 39.6428C23.4921 39.5137 23.4985 39.3825 23.5221 39.2574C23.5456 39.1322 23.5858 39.016 23.6402 38.9159C23.7386 38.7349 23.8778 38.6173 24.0302 38.5864C24.1825 38.5555 24.3369 38.6136 24.4626 38.7491L30.2342 44.9409C30.6754 45.4144 31.2213 45.5998 31.7518 45.4564C32.2822 45.313 32.7538 44.8524 33.0627 44.1761C33.3716 43.4998 33.4926 42.6631 33.399 41.85C33.3054 41.037 33.005 40.3142 32.5637 39.8408L27.162 34.0469C27.0925 33.972 27.0339 33.8758 26.9899 33.7645C26.9458 33.6531 26.9173 33.529 26.9062 33.3999C26.895 33.2708 26.9014 33.1396 26.9249 33.0144C26.9485 32.8893 26.9887 32.7731 27.0431 32.673C27.1417 32.4924 27.2808 32.3751 27.4331 32.3442C27.5854 32.3134 27.7397 32.3712 27.8655 32.5062L35.3095 40.4944C35.528 40.7288 35.7745 40.895 36.0349 40.9835C36.2952 41.0719 36.5645 41.0809 36.8271 41.0099C37.0898 40.9389 37.3407 40.7892 37.5656 40.5696C37.7906 40.3499 37.985 40.0645 38.138 39.7296C38.291 39.3947 38.3994 39.0169 38.4571 38.6178C38.5148 38.2187 38.5207 37.8061 38.4743 37.4035C38.428 37.0009 38.3304 36.6163 38.1871 36.2715C38.0437 35.9268 37.8575 35.6287 37.639 35.3942L30.578 27.8196C30.5079 27.7454 30.4487 27.6494 30.4043 27.538C30.3599 27.4265 30.3312 27.3021 30.3201 27.1726C30.309 27.0431 30.3158 26.9115 30.34 26.7863C30.3642 26.661 30.4052 26.545 30.4605 26.4456C30.5485 26.2846 30.6729 26.1801 30.8088 26.153C30.9447 26.1258 31.0824 26.1779 31.1944 26.2989L39.3985 35.1008C39.6171 35.3352 39.8636 35.5014 40.1241 35.5898C40.3846 35.6781 40.6539 35.687 40.9166 35.6159C41.1793 35.5448 41.4303 35.3951 41.6553 35.1752C41.8802 34.9554 42.0748 34.6699 42.2277 34.3348C42.3807 33.9998 42.4891 33.6219 42.5467 33.2226C42.6044 32.8234 42.6102 32.4107 42.5638 32.008C42.5174 31.6053 42.4197 31.2206 42.2763 30.8758C42.1329 30.531 41.9466 30.2328 41.728 29.9984Z" fill="#FFDC5D"/>
<path d="M22.4856 43.7315C22.3841 44.3251 22.1854 44.8387 21.9214 45.2455L20.465 47.4599C20.1983 47.8735 19.8654 48.1725 19.4996 48.327C19.1338 48.4815 18.748 48.4861 18.3807 48.3403C18.0098 48.1923 17.6711 47.8969 17.3987 47.4838C17.1263 47.0707 16.9299 46.5547 16.8293 45.988C16.7288 45.4212 16.7277 44.8238 16.8261 44.2562C16.9246 43.6886 17.1191 43.1709 17.39 42.7555L18.8463 40.5411C19.113 40.1275 19.4459 39.8285 19.8117 39.674C20.1775 39.5195 20.5634 39.5149 20.9307 39.6607C21.4887 39.8853 21.9658 40.4401 22.2573 41.2033C22.5488 41.9664 22.6309 42.8756 22.4856 43.7315ZM7.19146 32.7908L9.37157 29.4626C9.62084 29.081 9.80593 28.6123 9.91093 28.0968C10.0159 27.5814 10.0377 27.0345 9.97433 26.5033C9.91098 25.9721 9.76442 25.4724 9.54724 25.0472C9.33007 24.622 9.04878 24.284 8.72754 24.0623C8.32513 23.7849 7.87708 23.7022 7.44321 23.8254C7.00935 23.9485 6.61031 24.2716 6.29939 24.7515L4.11928 28.0797C3.87005 28.4615 3.68504 28.9303 3.58015 29.4459C3.47526 29.9614 3.45363 30.5083 3.51713 31.0396C3.58062 31.5708 3.72734 32.0704 3.94466 32.4955C4.16199 32.9206 4.44342 33.2585 4.76476 33.48C5.16703 33.7566 5.61474 33.8388 6.04826 33.7157C6.48178 33.5926 6.88054 33.2699 7.19146 32.7908ZM14.7399 32.9064C14.9535 32.6008 15.1247 32.2324 15.2434 31.8231C15.362 31.4139 15.4257 30.9722 15.4306 30.5244C15.4354 30.0766 15.3814 29.6319 15.2717 29.2168C15.1621 28.8017 14.999 28.4248 14.7922 28.1084C14.5854 27.792 14.3391 27.5427 14.0681 27.3754C13.7971 27.208 13.5068 27.1261 13.2147 27.1344C12.9226 27.1427 12.6345 27.2412 12.3677 27.4238C12.101 27.6065 11.8609 27.8696 11.6619 28.1975L7.3075 34.8629C7.09392 35.1685 6.9227 35.5369 6.80403 35.9462C6.68537 36.3554 6.6217 36.7971 6.61682 37.2449C6.61195 37.6927 6.66596 38.1374 6.77565 38.5525C6.88533 38.9675 7.04844 39.3445 7.25524 39.6609C7.46204 39.9773 7.70829 40.2266 7.97932 40.3939C8.25034 40.5612 8.54057 40.6432 8.8327 40.6349C9.12484 40.6265 9.41288 40.5281 9.67966 40.3455C9.94644 40.1628 10.1865 39.8997 10.3855 39.5718L14.7399 32.9064ZM18.0035 39.5762C18.2972 39.1252 18.5004 38.5547 18.5891 37.9322C18.6778 37.3097 18.6483 36.6613 18.5041 36.0637C18.3599 35.4661 18.107 34.9443 17.7754 34.5601C17.4437 34.1759 17.0473 33.9454 16.6328 33.8958C16.3199 33.8596 16.0055 33.9283 15.7117 34.0973C15.4179 34.2662 15.1516 34.5313 14.9314 34.874L12.0231 39.3094C11.729 39.7603 11.5254 40.331 11.4364 40.9538C11.3475 41.5767 11.3769 42.2256 11.5211 42.8236C11.6654 43.4216 11.9184 43.9437 12.2503 44.3281C12.5823 44.7124 12.9791 44.9428 13.3938 44.9921C14.0538 45.0721 14.6616 44.6786 15.0953 44.0138L18.0035 39.5762ZM42.0167 30.3786L42.9262 29.1735L32.8988 5.05115L15.1011 9.46432C14.818 9.53759 14.5471 9.6956 14.3039 9.92933C14.0607 10.1631 13.8499 10.4679 13.6835 10.8265C13.5172 11.1851 13.3986 11.5905 13.3344 12.0193C13.2703 12.4482 13.2619 12.8923 13.3097 13.3261C14.2641 19.3178 22.0171 14.8669 25.4287 11.99L42.0167 30.3786Z" fill="#EF9645"/>
<path d="M22.4856 41.5084C22.3841 42.102 22.1854 42.6156 21.9214 43.0224L20.465 45.2368C20.1983 45.6504 19.8654 45.9494 19.4996 46.1039C19.1338 46.2584 18.748 46.263 18.3807 46.1172C18.0098 45.9692 17.6711 45.6738 17.3987 45.2607C17.1263 44.8476 16.9299 44.3316 16.8293 43.7649C16.7288 43.1981 16.7277 42.6007 16.8261 42.0331C16.9246 41.4655 17.1191 40.9478 17.39 40.5324L18.8463 38.318C19.113 37.9044 19.4459 37.6054 19.8117 37.4509C20.1775 37.2964 20.5634 37.2918 20.9307 37.4376C21.4887 37.6623 21.9658 38.217 22.2573 38.9802C22.5488 39.7433 22.6309 40.6526 22.4856 41.5084ZM7.19146 30.5677L9.37157 27.2395C9.62084 26.8579 9.80593 26.3892 9.91093 25.8737C10.0159 25.3583 10.0377 24.8114 9.97433 24.2802C9.91098 23.749 9.76442 23.2494 9.54724 22.8242C9.33007 22.399 9.04878 22.0609 8.72754 21.8392C8.32505 21.5624 7.8771 21.4801 7.44333 21.6032C7.00955 21.7263 6.61054 22.0491 6.29939 22.5284L4.11928 25.8566C3.87005 26.2384 3.68504 26.7072 3.58015 27.2228C3.47526 27.7384 3.45363 28.2853 3.51713 28.8165C3.58062 29.3477 3.72734 29.8473 3.94466 30.2724C4.16199 30.6975 4.44342 31.0354 4.76476 31.2569C5.16703 31.5335 5.61474 31.6157 6.04826 31.4926C6.48178 31.3695 6.88054 31.0469 7.19146 30.5677ZM14.7399 30.6833C14.9535 30.3777 15.1247 30.0093 15.2434 29.6C15.362 29.1908 15.4257 28.7491 15.4306 28.3013C15.4354 27.8535 15.3814 27.4088 15.2717 26.9937C15.1621 26.5787 14.999 26.2017 14.7922 25.8853C14.5854 25.5689 14.3391 25.3196 14.0681 25.1523C13.7971 24.985 13.5068 24.903 13.2147 24.9113C12.9226 24.9197 12.6345 25.0181 12.3677 25.2007C12.101 25.3834 11.8609 25.6465 11.6619 25.9745L7.3075 32.6398C7.09392 32.9454 6.9227 33.3138 6.80403 33.7231C6.68537 34.1323 6.6217 34.574 6.61682 35.0218C6.61195 35.4696 6.66596 35.9143 6.77565 36.3294C6.88533 36.7445 7.04844 37.1214 7.25524 37.4378C7.46204 37.7542 7.70829 38.0035 7.97932 38.1708C8.25034 38.3382 8.54057 38.4201 8.8327 38.4118C9.12484 38.4035 9.41288 38.305 9.67966 38.1224C9.94644 37.9397 10.1865 37.6766 10.3855 37.3487L14.7399 30.6833ZM18.0035 37.3531C18.2972 36.9021 18.5004 36.3316 18.5891 35.7091C18.6778 35.0866 18.6483 34.4382 18.5041 33.8406C18.3599 33.243 18.107 32.7212 17.7754 32.337C17.4437 31.9528 17.0473 31.7223 16.6328 31.6727C16.3199 31.6365 16.0055 31.7052 15.7117 31.8742C15.4179 32.0431 15.1516 32.3082 14.9314 32.6509L12.0231 37.0863C11.729 37.5372 11.5254 38.1079 11.4364 38.7308C11.3475 39.3536 11.3769 40.0025 11.5211 40.6005C11.6654 41.1985 11.9184 41.7206 12.2503 42.105C12.5823 42.4893 12.9791 42.7197 13.3938 42.769C14.0538 42.849 14.6616 42.4555 15.0953 41.7907L18.0035 37.3531ZM49.2721 20.7765C49.6562 20.2677 49.9072 19.5632 49.9789 18.793C50.0506 18.0227 49.9382 17.2387 49.6623 16.5856L49.658 16.5745L44.6291 2.0766C44.3635 1.42625 43.9587 0.937585 43.484 0.694241C43.0093 0.450898 42.4942 0.468009 42.0268 0.742645C39.1374 2.45678 35.9724 4.42659 32.9002 2.82584L31.3076 1.98767C28.482 0.486969 25.4098 -1.27163 22.6045 1.33403C21.5964 2.24335 20.0836 3.85299 19.1074 4.84679C17.9014 6.08135 16.5341 6.89775 15.1011 7.23902C14.8176 7.31091 14.5462 7.46804 14.3025 7.70137C14.0588 7.9347 13.8476 8.23961 13.6811 8.59855C13.5146 8.95749 13.396 9.36338 13.3323 9.79283C13.2686 10.2223 13.2609 10.6668 13.3097 11.1008C14.1989 16.6857 20.9974 13.1195 24.6788 10.2804C24.9086 10.1036 25.1656 10.0269 25.4219 10.0586C25.6782 10.0904 25.9239 10.2294 26.1322 10.4605L42.9349 29.1715L49.2721 20.7765Z" fill="#FFCC4D"/>
</svg>
