<svg width="50" height="50" viewBox="0 0 50 50" fill="none" xmlns="http://www.w3.org/2000/svg">
<path d="M41.1765 29.2343V26.378C42.6471 24.8792 45.4618 22.1727 46.1632 18.7053C46.3721 18.8202 46.2441 18.8944 46.4765 18.8944C47.5912 18.8944 48.3235 17.4641 48.3235 15.6976C48.3235 13.9602 47.3588 12.5531 46.2662 12.5095C46.4765 11.7586 46.5779 10.7546 46.5779 9.4654C46.5779 5.16413 42.8294 0 34.4412 0C26.9882 0 22.3177 5.16413 22.3177 9.4654C22.3177 10.7139 22.3927 11.7383 22.5265 12.5313C21.5015 12.6841 20.6927 14.0344 20.6927 15.6961C20.6927 17.4626 21.5956 18.893 22.7118 18.893C22.9427 18.893 22.6103 18.8188 22.8177 18.7038C23.5191 22.1728 26.4706 24.8778 27.9412 26.378V29.0655C22.0588 29.7814 17.6471 32.8895 17.6471 35.9991V37.1777C17.6471 38.3592 18.8574 38.3592 20.05 38.3592H47.5941C48.7897 38.3592 50 38.3592 50 37.1777V35.9991C50 33.0874 45.5882 30.1831 41.1765 29.2343Z" fill="#55ACEE"/>
<path d="M23.5294 40.8751V38.0187C25 36.52 27.8147 33.8135 28.5162 30.346C28.725 30.461 28.5971 30.5352 28.8294 30.5352C29.9441 30.5352 30.6765 29.1048 30.6765 27.3383C30.6765 25.6009 29.7118 24.1939 28.6191 24.1502C28.8294 23.3994 28.9309 22.3954 28.9309 21.1061C28.9309 16.8049 25.1824 11.6407 16.7941 11.6407C9.33971 11.6407 4.67059 16.8049 4.67059 21.1061C4.67059 22.3546 4.74559 23.379 4.87941 24.172C3.85441 24.3248 3.04559 25.6751 3.04559 27.3369C3.04559 29.1034 3.94853 30.5337 5.06471 30.5337C5.29559 30.5337 4.96323 30.4595 5.17059 30.3445C5.87206 33.8135 8.82353 36.5185 10.2941 38.0187V40.7063C4.41176 41.4222 0 44.5303 0 47.6398V48.8199C0 50 1.21029 50 2.40294 50H29.9471C31.1426 50 32.3529 50 32.3529 48.8184V47.6384C32.3529 44.7282 27.9412 41.8238 23.5294 40.8751Z" fill="#226699"/>
</svg>
